<svg width="41" height="41" viewBox="0 0 41 41" fill="none" xmlns="http://www.w3.org/2000/svg">
<path d="M28.8981 15.784C28.5858 15.4736 28.1634 15.2993 27.7231 15.2993C27.2828 15.2993 26.8604 15.4736 26.5481 15.784L20.5648 21.684L14.6648 15.784C14.3525 15.4736 13.9301 15.2993 13.4898 15.2993C13.0495 15.2993 12.627 15.4736 12.3148 15.784C12.1586 15.9389 12.0346 16.1232 11.95 16.3263C11.8653 16.5294 11.8218 16.7473 11.8218 16.9673C11.8218 17.1873 11.8653 17.4052 11.95 17.6083C12.0346 17.8114 12.1586 17.9957 12.3148 18.1506L19.3814 25.2173C19.5364 25.3735 19.7207 25.4975 19.9238 25.5821C20.1269 25.6667 20.3448 25.7103 20.5648 25.7103C20.7848 25.7103 21.0026 25.6667 21.2057 25.5821C21.4088 25.4975 21.5932 25.3735 21.7481 25.2173L28.8981 18.1506C29.0543 17.9957 29.1783 17.8114 29.2629 17.6083C29.3475 17.4052 29.3911 17.1873 29.3911 16.9673C29.3911 16.7473 29.3475 16.5294 29.2629 16.3263C29.1783 16.1232 29.0543 15.9389 28.8981 15.784Z" fill="#333333"/>
</svg>
